<svg width="236" height="87" viewBox="0 0 236 87" fill="none" xmlns="http://www.w3.org/2000/svg">
<path d="M16.7586 20.6706C21.1844 15.348 25.9531 15.0177 30.5592 17.4262C34.05 19.2504 33.4632 24.1055 32.6883 27.9723L29.9038 41.9102H20.5619C20.5619 41.9102 23.509 26.7173 23.5243 26.2904C23.6386 23.4627 20.5644 23.0969 18.4608 23.8946C16.5147 24.6339 15.6585 26.4606 15.2901 28.1883C15.2037 28.5668 12.5615 41.9102 12.5615 41.9102H3.22217L8.20432 16.7072H17.5538L16.7586 20.6706Z" fill="white"/>
<path d="M82.9654 16.707H92.7366L79.2205 41.877H67.2999L64.2334 16.707H73.9614L75.186 31.5138L82.9654 16.707Z" fill="white"/>
<path d="M187.886 16.1152L186.265 24.263C181.639 22.6599 176.819 25.8407 176.159 29.0597C175.788 30.8661 173.62 41.9102 173.62 41.9102H164.258L169.225 16.7072H178.674L177.891 20.79C181.28 16.4633 184.977 15.6554 187.886 16.1152Z" fill="white"/>
<path d="M112.682 58.502H0L1.68951 49.8537H114.369L112.682 58.502Z" fill="white"/>
<path d="M143.96 8.64991C137.184 8.64991 135.34 9.8313 134.738 12.8775L133.986 16.7088H137.621L136.511 22.354H132.873L128.246 45.7303C126.671 54.0228 121.92 58.502 116.158 58.502L123.249 22.354H119.184L120.297 16.7088H124.067L126.173 8.69818C127.746 2.05446 133.534 -0.275286 138.996 0.0295888L145.586 0.0270496L143.96 8.64991Z" fill="white"/>
<path d="M233.835 8.65039H146.62L148.307 -0.000419892H235.519L233.835 8.65039Z" fill="white"/>
<path fill-rule="evenodd" clip-rule="evenodd" d="M144.964 31.564C144.53 34.1173 145.917 35.7154 147.533 36.287C149.349 36.9323 152.223 36.6935 153.729 34.6051H162.83C161.298 37.5167 159.146 40.0624 156.044 41.2666C152.027 42.824 144.054 43.5481 139.71 39.7651C135.731 36.2997 135.498 30.8831 136.831 25.8247C138.165 20.7638 143.966 16.5388 148.686 16.0764C153.406 15.6165 158.396 16.4168 160.873 18.4341C163.35 20.4488 164.872 23.2003 164.428 28.1773C164.242 30.253 163.749 31.564 163.749 31.564H144.964ZM145.754 26.5107H155.508C155.973 22.7099 152.278 21.7953 149.529 22.4254C147.416 22.9106 146.338 24.059 145.754 26.5107Z" fill="white"/>
<path d="M210.841 41.9102H201.5C201.5 41.9102 204.454 26.7173 204.467 26.2904C204.528 23.6761 202.231 23.2036 200.366 23.9048C198.418 24.6416 197.755 26.4606 197.389 28.1883C197.3 28.5668 194.66 41.9102 194.66 41.9102H185.318L190.303 16.7072H199.655L198.855 20.1929C202.602 15.4623 207.711 14.69 212.188 17.3271C213.377 18.0258 214.012 19.0243 214.307 20.1929C218.054 15.4623 223.895 14.69 228.377 17.3271C231.888 19.3977 230.585 24.1055 229.81 27.9723L227.025 41.9102H217.683C217.683 41.9102 220.638 26.7173 220.651 26.2904C220.712 23.6761 218.415 23.2036 216.55 23.9048C214.602 24.6416 213.941 26.4606 213.573 28.1883C213.484 28.5668 210.841 41.9102 210.841 41.9102Z" fill="white"/>
<path fill-rule="evenodd" clip-rule="evenodd" d="M59.3828 18.4337C61.8574 20.4484 63.3817 23.1999 62.9371 28.177C62.4951 33.149 59.2913 39.2109 53.9637 41.2739C49.9469 42.8313 42.5664 43.5478 38.2194 39.7648C34.2408 36.2994 33.9487 31.0987 35.4248 25.6923C36.8043 20.6441 42.1447 16.5029 47.1955 16.076C51.921 15.6772 56.9057 16.4165 59.3828 18.4337ZM51.0801 22.9357C53.4809 23.6954 53.702 26.7161 53.3768 29.2161C52.8991 32.8772 49.7157 36.7922 46.2732 35.4635C43.6056 34.4346 43.5802 30.5652 44.3398 27.8366C45.2392 24.5973 47.5842 21.8331 51.0801 22.9357Z" fill="white"/>
<path fill-rule="evenodd" clip-rule="evenodd" d="M114.314 18.4337C116.791 20.4484 118.316 23.1999 117.869 28.177C117.426 33.149 114.225 39.2109 108.898 41.2739C104.881 42.8313 97.4979 43.5478 93.1534 39.7648C89.1748 36.2994 88.8801 31.0987 90.3562 25.6923C91.7357 20.6441 97.0787 16.5029 102.127 16.076C106.852 15.6772 111.84 16.4165 114.314 18.4337ZM106.011 22.9357C108.417 23.6954 108.638 26.7161 108.308 29.2161C107.831 32.8772 104.647 36.7922 101.207 35.4635C98.537 34.4346 98.5166 30.5652 99.2712 27.8366C100.171 24.5973 102.516 21.8331 106.011 22.9357Z" fill="white"/>
<path d="M226.766 81.3059C225.708 81.3059 224.829 81.1267 224.129 80.7683C223.43 80.4099 222.909 79.932 222.568 79.3347C222.226 78.7373 222.056 78.0888 222.056 77.3891C222.056 76.5699 222.26 75.8616 222.67 75.2643C223.097 74.6669 223.72 74.2061 224.539 73.8819C225.358 73.5405 226.365 73.3699 227.56 73.3699H230.811C230.811 72.6872 230.717 72.124 230.529 71.6803C230.342 71.2195 230.051 70.8781 229.659 70.6563C229.266 70.4344 228.763 70.3235 228.148 70.3235C227.449 70.3235 226.851 70.4856 226.356 70.8099C225.862 71.1171 225.554 71.5949 225.435 72.2435H222.414C222.516 71.3219 222.824 70.5368 223.336 69.8883C223.848 69.2227 224.522 68.7107 225.358 68.3523C226.211 67.9768 227.142 67.7891 228.148 67.7891C229.36 67.7891 230.393 68.0024 231.246 68.4291C232.099 68.8387 232.748 69.436 233.192 70.2211C233.652 70.9891 233.883 71.9192 233.883 73.0115V80.9987H231.272L230.964 78.9251C230.794 79.2664 230.572 79.5821 230.299 79.8723C230.043 80.1624 229.744 80.4184 229.403 80.6403C229.062 80.8451 228.669 81.0072 228.225 81.1267C227.799 81.2461 227.312 81.3059 226.766 81.3059ZM227.457 78.8739C227.952 78.8739 228.387 78.7885 228.763 78.6179C229.155 78.4301 229.488 78.1741 229.761 77.8499C230.051 77.5085 230.273 77.1331 230.427 76.7235C230.58 76.3139 230.683 75.8787 230.734 75.4179V75.3667H227.892C227.295 75.3667 226.8 75.4435 226.408 75.5971C226.015 75.7336 225.734 75.9384 225.563 76.2115C225.392 76.4845 225.307 76.8003 225.307 77.1587C225.307 77.5171 225.392 77.8243 225.563 78.0803C225.734 78.3363 225.981 78.5325 226.305 78.6691C226.63 78.8056 227.014 78.8739 227.457 78.8739Z" fill="#5190E1"/>
<path d="M207.015 80.9987V68.0963H209.729L209.959 70.2467C210.352 69.4957 210.915 68.8984 211.649 68.4547C212.383 68.0109 213.253 67.7891 214.26 67.7891C215.301 67.7891 216.188 68.0109 216.922 68.4547C217.656 68.8813 218.219 69.5128 218.612 70.3491C219.022 71.1853 219.226 72.2264 219.226 73.4723V80.9987H216.154V73.7539C216.154 72.6787 215.915 71.8509 215.438 71.2707C214.96 70.6904 214.251 70.4003 213.313 70.4003C212.698 70.4003 212.144 70.5453 211.649 70.8355C211.171 71.1256 210.787 71.5523 210.497 72.1155C210.224 72.6616 210.087 73.3272 210.087 74.1123V80.9987H207.015Z" fill="#5190E1"/>
<path d="M200.393 80.9975V68.0951H203.465V80.9975H200.393ZM201.929 66.0471C201.366 66.0471 200.896 65.8764 200.521 65.5351C200.163 65.1767 199.983 64.7415 199.983 64.2295C199.983 63.7004 200.163 63.2738 200.521 62.9495C200.896 62.6082 201.366 62.4375 201.929 62.4375C202.492 62.4375 202.953 62.6082 203.311 62.9495C203.687 63.2738 203.875 63.7004 203.875 64.2295C203.875 64.7415 203.687 65.1767 203.311 65.5351C202.953 65.8764 202.492 66.0471 201.929 66.0471Z" fill="#5190E1"/>
<path d="M195.097 80.9986C194.226 80.9986 193.467 80.8621 192.818 80.589C192.187 80.3159 191.692 79.8637 191.333 79.2322C190.975 78.6007 190.796 77.7474 190.796 76.6722V70.6818H188.594V68.0962H190.796L191.154 64.6914H193.868V68.0962H197.375V70.6818H193.868V76.6722C193.868 77.3207 194.004 77.773 194.277 78.029C194.568 78.2679 195.045 78.3874 195.711 78.3874H197.298V80.9986H195.097Z" fill="#5190E1"/>
<path d="M174.04 80.9987V68.0963H176.754L176.984 70.2467C177.377 69.4957 177.94 68.8984 178.674 68.4547C179.408 68.0109 180.278 67.7891 181.285 67.7891C182.326 67.7891 183.213 68.0109 183.947 68.4547C184.681 68.8813 185.244 69.5128 185.637 70.3491C186.046 71.1853 186.251 72.2264 186.251 73.4723V80.9987H183.179V73.7539C183.179 72.6787 182.94 71.8509 182.462 71.2707C181.985 70.6904 181.276 70.4003 180.338 70.4003C179.723 70.4003 179.169 70.5453 178.674 70.8355C178.196 71.1256 177.812 71.5523 177.522 72.1155C177.249 72.6616 177.112 73.3272 177.112 74.1123V80.9987H174.04Z" fill="#5190E1"/>
<path d="M164.932 81.3059C163.652 81.3059 162.525 81.0328 161.553 80.4867C160.58 79.9235 159.82 79.1384 159.274 78.1315C158.728 77.1245 158.455 75.964 158.455 74.6499C158.455 73.2845 158.72 72.0899 159.249 71.0659C159.795 70.0419 160.554 69.2397 161.527 68.6595C162.517 68.0792 163.66 67.7891 164.957 67.7891C166.22 67.7891 167.321 68.0707 168.26 68.6339C169.199 69.1971 169.924 69.9565 170.436 70.9123C170.948 71.8509 171.204 72.9091 171.204 74.0867C171.204 74.2573 171.204 74.4451 171.204 74.6499C171.204 74.8547 171.187 75.068 171.153 75.2899H160.657V73.3187H168.106C168.072 72.38 167.756 71.6461 167.159 71.1171C166.562 70.5709 165.819 70.2979 164.932 70.2979C164.3 70.2979 163.72 70.4429 163.191 70.7331C162.662 71.0232 162.244 71.4584 161.937 72.0387C161.629 72.6019 161.476 73.3187 161.476 74.1891V74.9315C161.476 75.7336 161.621 76.4248 161.911 77.0051C162.218 77.5853 162.628 78.0291 163.14 78.3363C163.669 78.6264 164.258 78.7715 164.906 78.7715C165.623 78.7715 166.212 78.6179 166.673 78.3107C167.151 78.0035 167.5 77.5939 167.722 77.0819H170.845C170.607 77.884 170.214 78.6093 169.668 79.2579C169.122 79.8893 168.448 80.3928 167.645 80.7683C166.843 81.1267 165.939 81.3059 164.932 81.3059Z" fill="#5190E1"/>
<path d="M149.843 86.9379C148.631 86.9379 147.564 86.7843 146.643 86.4771C145.738 86.1869 145.03 85.7347 144.518 85.1203C144.023 84.5229 143.775 83.772 143.775 82.8675C143.775 82.3384 143.903 81.8179 144.159 81.3059C144.432 80.8109 144.834 80.3501 145.363 79.9235C145.909 79.4797 146.6 79.0957 147.436 78.7715L148.793 80.2563C147.974 80.5464 147.402 80.8963 147.078 81.3059C146.754 81.7155 146.591 82.1336 146.591 82.5603C146.591 83.004 146.728 83.3709 147.001 83.6611C147.291 83.9683 147.675 84.1987 148.153 84.3523C148.648 84.5059 149.203 84.5827 149.817 84.5827C150.414 84.5827 150.935 84.4973 151.379 84.3267C151.822 84.1731 152.164 83.9512 152.403 83.6611C152.659 83.3709 152.787 83.0211 152.787 82.6115C152.787 82.0995 152.607 81.6813 152.249 81.3571C151.891 81.0499 151.182 80.8621 150.124 80.7939C149.22 80.7256 148.426 80.6317 147.743 80.5123C147.061 80.3757 146.472 80.2221 145.977 80.0515C145.499 79.8808 145.09 79.6931 144.748 79.4883C144.407 79.2664 144.125 79.0445 143.903 78.8227V78.2339L146.591 75.4179L148.87 76.1603L145.849 79.1043L146.643 77.6195C146.813 77.7389 146.984 77.8499 147.155 77.9523C147.342 78.0547 147.573 78.1485 147.846 78.2339C148.136 78.3021 148.511 78.3704 148.972 78.4387C149.433 78.5069 150.03 78.5752 150.764 78.6435C151.908 78.7288 152.838 78.9336 153.555 79.2579C154.271 79.5821 154.8 80.0173 155.142 80.5635C155.483 81.1096 155.654 81.7667 155.654 82.5347C155.654 83.2856 155.44 83.9939 155.014 84.6595C154.604 85.3251 153.973 85.8712 153.119 86.2979C152.266 86.7245 151.174 86.9379 149.843 86.9379ZM149.843 77.1331C148.767 77.1331 147.837 76.9283 147.052 76.5187C146.284 76.092 145.695 75.5288 145.286 74.8291C144.876 74.1123 144.671 73.3272 144.671 72.4739C144.671 71.6035 144.876 70.8184 145.286 70.1187C145.695 69.4189 146.284 68.8557 147.052 68.4291C147.837 68.0024 148.767 67.7891 149.843 67.7891C150.918 67.7891 151.839 68.0024 152.607 68.4291C153.375 68.8557 153.964 69.4189 154.374 70.1187C154.783 70.8184 154.988 71.6035 154.988 72.4739C154.988 73.3272 154.783 74.1123 154.374 74.8291C153.964 75.5288 153.375 76.092 152.607 76.5187C151.839 76.9283 150.918 77.1331 149.843 77.1331ZM149.843 74.7523C150.576 74.7523 151.165 74.556 151.609 74.1635C152.053 73.7709 152.275 73.2077 152.275 72.4739C152.275 71.74 152.053 71.1853 151.609 70.8099C151.165 70.4173 150.576 70.2211 149.843 70.2211C149.109 70.2211 148.511 70.4173 148.051 70.8099C147.59 71.1853 147.359 71.74 147.359 72.4739C147.359 73.2077 147.59 73.7709 148.051 74.1635C148.511 74.556 149.109 74.7523 149.843 74.7523ZM151.967 70.3491L151.379 68.0963H156.678V70.0163L151.967 70.3491Z" fill="#5190E1"/>
<path d="M134.54 80.9987V68.0963H137.279L137.561 70.5027C137.868 69.9395 138.252 69.4616 138.713 69.0691C139.174 68.6595 139.711 68.3437 140.326 68.1219C140.957 67.9 141.648 67.7891 142.399 67.7891V71.0403H141.324C140.812 71.0403 140.326 71.1085 139.865 71.2451C139.404 71.3645 139.003 71.5693 138.662 71.8595C138.337 72.1325 138.081 72.5165 137.894 73.0115C137.706 73.4893 137.612 74.0952 137.612 74.8291V80.9987H134.54Z" fill="#5190E1"/>
<path d="M115.64 80.9981L122.194 63.0781H125.624L132.178 80.9981H128.927L123.883 66.6621L118.84 80.9981H115.64ZM118.559 76.7741L119.378 74.3421H128.21L129.029 76.7741H118.559Z" fill="#5190E1"/>
<path d="M2 71.998H114L112 80.998H0L2 71.998Z" fill="#5190E1"/>
</svg>
